<?xml version="1.0" encoding="UTF-8" standalone="no"?>
<svg
   xmlns:dc="http://purl.org/dc/elements/1.1/"
   xmlns:cc="http://creativecommons.org/ns#"
   xmlns:rdf="http://www.w3.org/1999/02/22-rdf-syntax-ns#"
   xmlns:svg="http://www.w3.org/2000/svg"
   xmlns="http://www.w3.org/2000/svg"
   xmlns:sodipodi="http://sodipodi.sourceforge.net/DTD/sodipodi-0.dtd"
   xmlns:inkscape="http://www.inkscape.org/namespaces/inkscape"
   id="svg10643"
   height="32"
   width="32"
   version="1.0"
   inkscape:version="0.91 r13725"
   sodipodi:docname="ge_pi_toggled.svg">
  <sodipodi:namedview
     pagecolor="#ffffff"
     bordercolor="#666666"
     borderopacity="1"
     objecttolerance="10"
     gridtolerance="10"
     guidetolerance="10"
     inkscape:pageopacity="0"
     inkscape:pageshadow="2"
     inkscape:window-width="668"
     inkscape:window-height="480"
     id="namedview5533"
     showgrid="false"
     inkscape:zoom="7.375"
     inkscape:cx="16"
     inkscape:cy="16"
     inkscape:window-x="20"
     inkscape:window-y="42"
     inkscape:window-maximized="0"
     inkscape:current-layer="svg10643" />
  <defs
     id="defs10645">
    <radialGradient
       id="radialGradient4591-1"
       gradientUnits="userSpaceOnUse"
       cx="-54.952"
       cy="-56.551"
       r="20.607"
       gradientTransform="matrix(0.69757,0,0,0.69757,15.282,42.838)">
      <stop
         id="stop4328"
         offset="0" />
      <stop
         id="stop4334"
         offset="0.91" />
      <stop
         id="stop4330"
         stop-opacity="0"
         offset="1" />
    </radialGradient>
    <radialGradient
       id="radialGradient4593-4"
       gradientUnits="userSpaceOnUse"
       cx="46.972"
       cy="-33.923"
       r="60.306"
       gradientTransform="matrix(0.26017,0,0,0.2473,-39.109,7.9866)">
      <stop
         id="stop4226"
         stop-color="#95d2f8"
         offset="0" />
      <stop
         id="stop4240"
         stop-color="#357bb5"
         offset=".41" />
      <stop
         id="stop4228"
         stop-color="#13324e"
         offset="1" />
    </radialGradient>
    <radialGradient
       id="radialGradient3383"
       gradientUnits="userSpaceOnUse"
       cy="-33.923"
       cx="46.972"
       gradientTransform="matrix(0.26017,0,0,0.2473,-39.109,7.9866)"
       r="60.306">
      <stop
         id="stop4473"
         stop-color="#fff"
         offset="0" />
      <stop
         id="stop4544"
         stop-color="#f6f6f6"
         offset=".5" />
      <stop
         id="stop4475"
         stop-color="#e1e1e1"
         offset="1" />
    </radialGradient>
  </defs>
  <metadata
     id="metadata10648">
    <rdf:RDF>
      <cc:Work
         rdf:about="">
        <dc:format>image/svg+xml</dc:format>
        <dc:type
           rdf:resource="http://purl.org/dc/dcmitype/StillImage" />
        <dc:title />
      </cc:Work>
    </rdf:RDF>
  </metadata>
  <rect
     id="rect4364"
     ry="3.878"
     style="enable-background:new"
     transform="scale(1,-1)"
     height="32"
     width="32"
     y="-32"
     x="-.00025004"
     fill="#fff" />
  <rect
     id="rect4366"
     style="enable-background:new"
     ry="3.878"
     height="32"
     width="32"
     y=".00024986"
     x="-.00025010"
     fill="#80c860" />
  <rect
     id="rect4426"
     stroke-linejoin="round"
     style="enable-background:new"
     ry="3.755"
     height="30.979"
     width="30.979"
     stroke="#939393"
     stroke-linecap="round"
     y=".51025"
     x=".51075"
     stroke-width="1.021"
     fill="none" />
  <g
     id="g13224"
     transform="translate(39.051,12.61)"
     style="fill-rule:evenodd">
    <circle
       id="path4307"
       style="color:#000000;opacity:0.54829;fill:url(#radialGradient4591-1)"
       cy="3.3898001"
       cx="-23.051001"
       r="14.375" />
    <circle
       id="path3253"
       style="color:#000000;fill:url(#radialGradient4593-4)"
       cy="3.3898001"
       cx="-23.051001"
       r="13.477" />
    <path
       id="path4540"
       style="color:#000000;fill:url(#radialGradient3383)"
       d="m -23.051,-9.5252 c -1.6104,0 -3.1473,0.30304 -4.5694,0.84229 3.9146,0.068679 6.1238,0.47522 8.1281,1.5723 0.16702,0.09142 0.33336,0.18658 0.49835,0.28778 0.49496,0.30362 0.98724,0.65385 1.4951,1.0529 2.1888,1.7198 2.3803,3.8126 4.2395,5.4117 1.1319,0.97353 0.97867,0.89142 1.5021,0.89142 0.57284,0 0.86446,-0.51778 1.0037,-1.0809 -1.6669,-5.2045 -6.5418,-8.9774 -12.297,-8.9774 z m -5.1801,2.3724 c -0.27371,0 -0.54647,0.029497 -0.81421,0.084228 -0.08925,0.018243 -0.17834,0.039492 -0.26672,0.063171 -2.4749,0.66301 -4.5926,3.3932 -5.2853,4.6466 -0.04406,0.079727 -0.09401,0.17344 -0.14038,0.2597 -0.36784,0.78105 -0.66403,1.5997 -0.87036,2.4567 0.19816,-0.25353 0.39101,-0.4915 0.58258,-0.71594 1.341,-1.5711 2.5682,-2.4216 4.3308,-2.4216 3.1449,-2e-7 3.5445,1.4011 9.3073,5.159 2.8362,1.8495 7.1401,4.3999 10.69,4.78 0.14562,-0.47748 0.26098,-0.96785 0.35095,-1.467 -1.3281,-0.095884 -2.5246,-0.60216 -3.8184,-1.46 -0.18483,-0.12254 -0.3721,-0.24921 -0.56152,-0.38605 -1.5154,-1.0947 -3.1995,-2.6425 -5.3906,-4.5624 -1.6683,-1.4618 -5.8643,-6.4365 -8.114,-6.4365 z m -4.5062,14.747 c -0.99716,0 -1.7412,0.50542 -1.825,1.6425 1.3979,2.7444 3.7457,4.9219 6.6119,6.0995 -0.03799,-0.05316 -0.07406,-0.10916 -0.1123,-0.16846 -0.26771,-0.41508 -0.52643,-0.97648 -0.52643,-1.6214 0,-0.75029 0.48521,-1.0458 1.0318,-1.0458 0.72795,0 3.1308,1.1441 7.1524,1.1441 2.0115,0 4.5211,-0.29466 6.3593,-1.0037 0.72599,-0.70686 1.3648,-1.4983 1.9092,-2.3584 -1.1749,0.47631 -3.3475,1.1652 -6.1768,1.1652 -5.4657,0 -10.45,-2.333 -11.89,-3.0814 -0.38199,-0.19852 -1.3611,-0.7721 -2.5339,-0.7721 z"
       inkscape:connector-curvature="0" />
  </g>
</svg>
